<mxfile host="app.diagrams.net" modified="2023-11-21T07:08:33.723Z" agent="Mozilla/5.0 (Windows NT 10.0; Win64; x64) AppleWebKit/537.36 (KHTML, like Gecko) Chrome/118.0.0.0 Safari/537.36 OPR/104.0.0.0" version="22.1.3" etag="Wf6L2_kjnmUCMaICXzg7" type="device">
  <diagram id="1cee9afd-dcdd-cf27-cb82-50d77dad4855" name="Page-1">
    <mxGraphModel dx="1624" dy="893" grid="1" gridSize="10" guides="1" tooltips="1" connect="1" arrows="1" fold="1" page="1" pageScale="1" pageWidth="850" pageHeight="1100" math="0" shadow="0">
      <root>
        <mxCell id="0" />
        <mxCell id="1" parent="0" />
        <mxCell id="c1cb8d76720eaeb-15" value="Guru" style="shape=umlActor;verticalLabelPosition=bottom;labelBackgroundColor=none;verticalAlign=top;html=1;strokeWidth=4;fillColor=#F2CC8F;strokeColor=#E07A5F;fontColor=#393C56;rounded=1;sketch=1;curveFitting=1;jiggle=2;" parent="1" vertex="1">
          <mxGeometry x="115" y="243" width="30" height="60" as="geometry" />
        </mxCell>
        <mxCell id="c1cb8d76720eaeb-20" value="Siswa" style="shape=umlActor;verticalLabelPosition=bottom;labelBackgroundColor=none;verticalAlign=top;html=1;strokeWidth=4;fillColor=#F2CC8F;strokeColor=#E07A5F;fontColor=#393C56;rounded=1;sketch=1;curveFitting=1;jiggle=2;" parent="1" vertex="1">
          <mxGeometry x="85" y="373" width="30" height="65" as="geometry" />
        </mxCell>
        <mxCell id="a8w0Mrk04vqDfvvO1UQ3-1" value="Kepala Sekolah" style="shape=umlActor;verticalLabelPosition=bottom;labelBackgroundColor=none;verticalAlign=top;html=1;strokeWidth=4;fillColor=#F2CC8F;strokeColor=#E07A5F;fontColor=#393C56;rounded=1;sketch=1;curveFitting=1;jiggle=2;" vertex="1" parent="1">
          <mxGeometry x="745" y="423" width="30" height="60" as="geometry" />
        </mxCell>
        <mxCell id="a8w0Mrk04vqDfvvO1UQ3-10" value="Sistem Sekolah SMA DEL - use cases" style="shape=umlFrame;whiteSpace=wrap;html=1;strokeWidth=1;fillColor=none;width=200;height=30;labelBackgroundColor=none;strokeColor=#E07A5F;fontColor=#393C56;rounded=1;sketch=1;curveFitting=1;jiggle=2;" vertex="1" parent="1">
          <mxGeometry x="225" y="153" width="470" height="680" as="geometry" />
        </mxCell>
        <mxCell id="a8w0Mrk04vqDfvvO1UQ3-11" value="Kelola Auth" style="ellipse;whiteSpace=wrap;html=1;labelBackgroundColor=none;fillColor=#F2CC8F;strokeColor=#E07A5F;fontColor=#393C56;rounded=1;sketch=1;curveFitting=1;jiggle=2;" vertex="1" parent="1">
          <mxGeometry x="326.25" y="273" width="80" height="40" as="geometry" />
        </mxCell>
        <mxCell id="a8w0Mrk04vqDfvvO1UQ3-15" value="Crud Guru" style="ellipse;whiteSpace=wrap;html=1;labelBackgroundColor=none;fillColor=#F2CC8F;strokeColor=#E07A5F;fontColor=#393C56;rounded=1;sketch=1;curveFitting=1;jiggle=2;" vertex="1" parent="1">
          <mxGeometry x="555" y="273" width="82.75" height="40" as="geometry" />
        </mxCell>
        <mxCell id="a8w0Mrk04vqDfvvO1UQ3-17" value="Crud Siswa" style="ellipse;whiteSpace=wrap;html=1;labelBackgroundColor=none;fillColor=#F2CC8F;strokeColor=#E07A5F;fontColor=#393C56;rounded=1;sketch=1;curveFitting=1;jiggle=2;" vertex="1" parent="1">
          <mxGeometry x="345" y="373" width="87.5" height="40" as="geometry" />
        </mxCell>
        <mxCell id="a8w0Mrk04vqDfvvO1UQ3-19" value="Auth" style="ellipse;whiteSpace=wrap;html=1;labelBackgroundColor=none;fillColor=#F2CC8F;strokeColor=#E07A5F;fontColor=#393C56;rounded=1;sketch=1;curveFitting=1;jiggle=2;" vertex="1" parent="1">
          <mxGeometry x="432.5" y="203" width="80" height="40" as="geometry" />
        </mxCell>
        <mxCell id="a8w0Mrk04vqDfvvO1UQ3-20" value="Crud Matkul" style="ellipse;whiteSpace=wrap;html=1;labelBackgroundColor=none;fillColor=#F2CC8F;strokeColor=#E07A5F;fontColor=#393C56;rounded=1;sketch=1;curveFitting=1;jiggle=2;" vertex="1" parent="1">
          <mxGeometry x="535" y="423" width="87.5" height="40" as="geometry" />
        </mxCell>
        <mxCell id="a8w0Mrk04vqDfvvO1UQ3-21" value="Crud Nilai" style="ellipse;whiteSpace=wrap;html=1;labelBackgroundColor=none;fillColor=#F2CC8F;strokeColor=#E07A5F;fontColor=#393C56;rounded=1;sketch=1;curveFitting=1;jiggle=2;" vertex="1" parent="1">
          <mxGeometry x="345" y="483" width="87.5" height="40" as="geometry" />
        </mxCell>
        <mxCell id="a8w0Mrk04vqDfvvO1UQ3-22" value="Crud Pengumuman" style="ellipse;whiteSpace=wrap;html=1;labelBackgroundColor=none;fillColor=#F2CC8F;strokeColor=#E07A5F;fontColor=#393C56;rounded=1;sketch=1;curveFitting=1;jiggle=2;" vertex="1" parent="1">
          <mxGeometry x="467.5" y="493" width="87.5" height="40" as="geometry" />
        </mxCell>
        <mxCell id="a8w0Mrk04vqDfvvO1UQ3-23" value="Crud Kelas" style="ellipse;whiteSpace=wrap;html=1;labelBackgroundColor=none;fillColor=#F2CC8F;strokeColor=#E07A5F;fontColor=#393C56;rounded=1;sketch=1;curveFitting=1;jiggle=2;" vertex="1" parent="1">
          <mxGeometry x="345" y="583" width="87.5" height="40" as="geometry" />
        </mxCell>
        <mxCell id="a8w0Mrk04vqDfvvO1UQ3-25" style="html=1;jettySize=auto;orthogonalLoop=1;curved=1;fontColor=default;labelBackgroundColor=none;strokeColor=#E07A5F;rounded=1;sketch=1;curveFitting=1;jiggle=2;" edge="1" parent="1" source="a8w0Mrk04vqDfvvO1UQ3-1" target="a8w0Mrk04vqDfvvO1UQ3-19">
          <mxGeometry relative="1" as="geometry">
            <mxPoint x="675" y="423" as="sourcePoint" />
            <mxPoint x="760" y="323" as="targetPoint" />
            <Array as="points">
              <mxPoint x="595" y="353" />
            </Array>
          </mxGeometry>
        </mxCell>
        <mxCell id="a8w0Mrk04vqDfvvO1UQ3-26" style="html=1;jettySize=auto;orthogonalLoop=1;curved=1;fontColor=default;labelBackgroundColor=none;strokeColor=#E07A5F;rounded=1;sketch=1;curveFitting=1;jiggle=2;" edge="1" parent="1" target="a8w0Mrk04vqDfvvO1UQ3-11">
          <mxGeometry relative="1" as="geometry">
            <mxPoint x="755" y="453" as="sourcePoint" />
            <mxPoint x="480" y="264" as="targetPoint" />
          </mxGeometry>
        </mxCell>
        <mxCell id="a8w0Mrk04vqDfvvO1UQ3-28" style="html=1;jettySize=auto;orthogonalLoop=1;curved=1;fontColor=default;exitX=0.5;exitY=0.5;exitDx=0;exitDy=0;exitPerimeter=0;labelBackgroundColor=none;strokeColor=#E07A5F;rounded=1;sketch=1;curveFitting=1;jiggle=2;" edge="1" parent="1" source="c1cb8d76720eaeb-15" target="a8w0Mrk04vqDfvvO1UQ3-19">
          <mxGeometry relative="1" as="geometry">
            <mxPoint x="775" y="473" as="sourcePoint" />
            <mxPoint x="500" y="284" as="targetPoint" />
          </mxGeometry>
        </mxCell>
        <mxCell id="a8w0Mrk04vqDfvvO1UQ3-29" style="html=1;jettySize=auto;orthogonalLoop=1;curved=1;fontColor=default;exitX=0.5;exitY=0.5;exitDx=0;exitDy=0;exitPerimeter=0;labelBackgroundColor=none;strokeColor=#E07A5F;rounded=1;sketch=1;curveFitting=1;jiggle=2;" edge="1" parent="1" source="c1cb8d76720eaeb-15" target="a8w0Mrk04vqDfvvO1UQ3-17">
          <mxGeometry relative="1" as="geometry">
            <mxPoint x="785" y="483" as="sourcePoint" />
            <mxPoint x="510" y="294" as="targetPoint" />
          </mxGeometry>
        </mxCell>
        <mxCell id="a8w0Mrk04vqDfvvO1UQ3-30" style="html=1;jettySize=auto;orthogonalLoop=1;curved=1;fontColor=default;exitX=0.5;exitY=0.5;exitDx=0;exitDy=0;exitPerimeter=0;labelBackgroundColor=none;strokeColor=#E07A5F;rounded=1;sketch=1;curveFitting=1;jiggle=2;" edge="1" parent="1" source="a8w0Mrk04vqDfvvO1UQ3-1" target="a8w0Mrk04vqDfvvO1UQ3-15">
          <mxGeometry relative="1" as="geometry">
            <mxPoint x="795" y="493" as="sourcePoint" />
            <mxPoint x="520" y="304" as="targetPoint" />
          </mxGeometry>
        </mxCell>
        <mxCell id="a8w0Mrk04vqDfvvO1UQ3-32" style="html=1;jettySize=auto;orthogonalLoop=1;curved=1;fontColor=default;exitX=0.5;exitY=0.5;exitDx=0;exitDy=0;exitPerimeter=0;labelBackgroundColor=none;strokeColor=#E07A5F;rounded=1;sketch=1;curveFitting=1;jiggle=2;" edge="1" parent="1" source="c1cb8d76720eaeb-15" target="a8w0Mrk04vqDfvvO1UQ3-20">
          <mxGeometry relative="1" as="geometry">
            <mxPoint x="805" y="503" as="sourcePoint" />
            <mxPoint x="530" y="314" as="targetPoint" />
          </mxGeometry>
        </mxCell>
        <mxCell id="a8w0Mrk04vqDfvvO1UQ3-33" style="html=1;jettySize=auto;orthogonalLoop=1;curved=1;fontColor=default;exitX=0.5;exitY=0.5;exitDx=0;exitDy=0;exitPerimeter=0;labelBackgroundColor=none;strokeColor=#E07A5F;rounded=1;sketch=1;curveFitting=1;jiggle=2;" edge="1" parent="1" source="c1cb8d76720eaeb-15" target="a8w0Mrk04vqDfvvO1UQ3-21">
          <mxGeometry relative="1" as="geometry">
            <mxPoint x="815" y="513" as="sourcePoint" />
            <mxPoint x="540" y="324" as="targetPoint" />
          </mxGeometry>
        </mxCell>
        <mxCell id="a8w0Mrk04vqDfvvO1UQ3-34" style="html=1;jettySize=auto;orthogonalLoop=1;curved=1;fontColor=default;exitX=0.5;exitY=0.5;exitDx=0;exitDy=0;exitPerimeter=0;labelBackgroundColor=none;strokeColor=#E07A5F;rounded=1;sketch=1;curveFitting=1;jiggle=2;" edge="1" parent="1" source="a8w0Mrk04vqDfvvO1UQ3-1" target="a8w0Mrk04vqDfvvO1UQ3-22">
          <mxGeometry relative="1" as="geometry">
            <mxPoint x="825" y="523" as="sourcePoint" />
            <mxPoint x="550" y="334" as="targetPoint" />
          </mxGeometry>
        </mxCell>
        <mxCell id="a8w0Mrk04vqDfvvO1UQ3-35" style="html=1;jettySize=auto;orthogonalLoop=1;curved=1;fontColor=default;exitX=0.5;exitY=0.5;exitDx=0;exitDy=0;exitPerimeter=0;labelBackgroundColor=none;strokeColor=#E07A5F;rounded=1;sketch=1;curveFitting=1;jiggle=2;" edge="1" parent="1" source="c1cb8d76720eaeb-15" target="a8w0Mrk04vqDfvvO1UQ3-23">
          <mxGeometry relative="1" as="geometry">
            <mxPoint x="835" y="533" as="sourcePoint" />
            <mxPoint x="560" y="344" as="targetPoint" />
          </mxGeometry>
        </mxCell>
        <mxCell id="a8w0Mrk04vqDfvvO1UQ3-39" style="html=1;jettySize=auto;orthogonalLoop=1;curved=1;fontColor=default;exitX=0.5;exitY=0.5;exitDx=0;exitDy=0;exitPerimeter=0;entryX=0;entryY=0;entryDx=0;entryDy=0;labelBackgroundColor=none;strokeColor=#E07A5F;rounded=1;sketch=1;curveFitting=1;jiggle=2;" edge="1" parent="1" source="c1cb8d76720eaeb-20" target="a8w0Mrk04vqDfvvO1UQ3-40">
          <mxGeometry relative="1" as="geometry">
            <mxPoint x="140" y="283" as="sourcePoint" />
            <mxPoint x="408.209576389273" y="640.8981178010058" as="targetPoint" />
          </mxGeometry>
        </mxCell>
        <mxCell id="a8w0Mrk04vqDfvvO1UQ3-40" value="Read" style="ellipse;whiteSpace=wrap;html=1;labelBackgroundColor=none;fillColor=#F2CC8F;strokeColor=#E07A5F;fontColor=#393C56;rounded=1;sketch=1;curveFitting=1;jiggle=2;" vertex="1" parent="1">
          <mxGeometry x="275" y="683" width="87.5" height="40" as="geometry" />
        </mxCell>
        <mxCell id="a8w0Mrk04vqDfvvO1UQ3-43" style="html=1;jettySize=auto;orthogonalLoop=1;curved=1;fontColor=default;entryX=0;entryY=1;entryDx=0;entryDy=0;dashed=1;labelBackgroundColor=none;strokeColor=#E07A5F;rounded=1;sketch=1;curveFitting=1;jiggle=2;" edge="1" parent="1" source="a8w0Mrk04vqDfvvO1UQ3-11" target="a8w0Mrk04vqDfvvO1UQ3-19">
          <mxGeometry relative="1" as="geometry">
            <mxPoint x="755" y="453" as="sourcePoint" />
            <mxPoint x="480" y="264" as="targetPoint" />
          </mxGeometry>
        </mxCell>
        <mxCell id="a8w0Mrk04vqDfvvO1UQ3-66" value="&lt;font style=&quot;font-size: 6px;&quot;&gt;Include&lt;/font&gt;" style="edgeLabel;html=1;align=center;verticalAlign=middle;resizable=0;points=[];fontSize=20;fontFamily=Architects Daughter;fontColor=#393C56;rounded=1;sketch=1;curveFitting=1;jiggle=2;labelBackgroundColor=none;" vertex="1" connectable="0" parent="a8w0Mrk04vqDfvvO1UQ3-43">
          <mxGeometry x="0.1608" y="2" relative="1" as="geometry">
            <mxPoint as="offset" />
          </mxGeometry>
        </mxCell>
        <mxCell id="a8w0Mrk04vqDfvvO1UQ3-44" style="html=1;jettySize=auto;orthogonalLoop=1;curved=1;fontColor=default;entryX=1;entryY=1;entryDx=0;entryDy=0;dashed=1;exitX=0.5;exitY=0;exitDx=0;exitDy=0;labelBackgroundColor=none;strokeColor=#E07A5F;rounded=1;sketch=1;curveFitting=1;jiggle=2;" edge="1" parent="1" source="a8w0Mrk04vqDfvvO1UQ3-15" target="a8w0Mrk04vqDfvvO1UQ3-19">
          <mxGeometry relative="1" as="geometry">
            <mxPoint x="399" y="287" as="sourcePoint" />
            <mxPoint x="454" y="247" as="targetPoint" />
          </mxGeometry>
        </mxCell>
        <mxCell id="a8w0Mrk04vqDfvvO1UQ3-45" style="html=1;jettySize=auto;orthogonalLoop=1;curved=1;fontColor=default;entryX=0.37;entryY=0.94;entryDx=0;entryDy=0;dashed=1;exitX=0.616;exitY=0.087;exitDx=0;exitDy=0;exitPerimeter=0;entryPerimeter=0;labelBackgroundColor=none;strokeColor=#E07A5F;rounded=1;sketch=1;curveFitting=1;jiggle=2;" edge="1" parent="1" source="a8w0Mrk04vqDfvvO1UQ3-17" target="a8w0Mrk04vqDfvvO1UQ3-19">
          <mxGeometry relative="1" as="geometry">
            <mxPoint x="409" y="297" as="sourcePoint" />
            <mxPoint x="464" y="257" as="targetPoint" />
          </mxGeometry>
        </mxCell>
        <mxCell id="a8w0Mrk04vqDfvvO1UQ3-46" style="html=1;jettySize=auto;orthogonalLoop=1;curved=1;fontColor=default;entryX=0.5;entryY=1;entryDx=0;entryDy=0;dashed=1;exitX=0.5;exitY=0;exitDx=0;exitDy=0;labelBackgroundColor=none;strokeColor=#E07A5F;rounded=1;sketch=1;curveFitting=1;jiggle=2;" edge="1" parent="1" source="a8w0Mrk04vqDfvvO1UQ3-20" target="a8w0Mrk04vqDfvvO1UQ3-19">
          <mxGeometry relative="1" as="geometry">
            <mxPoint x="419" y="307" as="sourcePoint" />
            <mxPoint x="474" y="267" as="targetPoint" />
          </mxGeometry>
        </mxCell>
        <mxCell id="a8w0Mrk04vqDfvvO1UQ3-47" style="html=1;jettySize=auto;orthogonalLoop=1;curved=1;fontColor=default;entryX=0.614;entryY=0.94;entryDx=0;entryDy=0;dashed=1;exitX=1;exitY=0;exitDx=0;exitDy=0;entryPerimeter=0;labelBackgroundColor=none;strokeColor=#E07A5F;rounded=1;sketch=1;curveFitting=1;jiggle=2;" edge="1" parent="1" source="a8w0Mrk04vqDfvvO1UQ3-21" target="a8w0Mrk04vqDfvvO1UQ3-19">
          <mxGeometry relative="1" as="geometry">
            <mxPoint x="429" y="317" as="sourcePoint" />
            <mxPoint x="484" y="277" as="targetPoint" />
          </mxGeometry>
        </mxCell>
        <mxCell id="a8w0Mrk04vqDfvvO1UQ3-48" style="html=1;jettySize=auto;orthogonalLoop=1;curved=1;fontColor=default;entryX=0.751;entryY=0.94;entryDx=0;entryDy=0;dashed=1;entryPerimeter=0;labelBackgroundColor=none;strokeColor=#E07A5F;rounded=1;sketch=1;curveFitting=1;jiggle=2;" edge="1" parent="1" source="a8w0Mrk04vqDfvvO1UQ3-22" target="a8w0Mrk04vqDfvvO1UQ3-19">
          <mxGeometry relative="1" as="geometry">
            <mxPoint x="439" y="327" as="sourcePoint" />
            <mxPoint x="494" y="287" as="targetPoint" />
          </mxGeometry>
        </mxCell>
        <mxCell id="a8w0Mrk04vqDfvvO1UQ3-49" style="html=1;jettySize=auto;orthogonalLoop=1;curved=1;fontColor=default;dashed=1;labelBackgroundColor=none;strokeColor=#E07A5F;rounded=1;sketch=1;curveFitting=1;jiggle=2;" edge="1" parent="1" source="a8w0Mrk04vqDfvvO1UQ3-23" target="a8w0Mrk04vqDfvvO1UQ3-19">
          <mxGeometry relative="1" as="geometry">
            <mxPoint x="449" y="337" as="sourcePoint" />
            <mxPoint x="504" y="297" as="targetPoint" />
          </mxGeometry>
        </mxCell>
        <mxCell id="a8w0Mrk04vqDfvvO1UQ3-50" style="html=1;jettySize=auto;orthogonalLoop=1;curved=1;fontColor=default;dashed=1;labelBackgroundColor=none;strokeColor=#E07A5F;rounded=1;sketch=1;curveFitting=1;jiggle=2;" edge="1" parent="1" source="a8w0Mrk04vqDfvvO1UQ3-40" target="a8w0Mrk04vqDfvvO1UQ3-19">
          <mxGeometry relative="1" as="geometry">
            <mxPoint x="459" y="347" as="sourcePoint" />
            <mxPoint x="514" y="307" as="targetPoint" />
          </mxGeometry>
        </mxCell>
        <mxCell id="a8w0Mrk04vqDfvvO1UQ3-51" value="Matkul" style="ellipse;whiteSpace=wrap;html=1;labelBackgroundColor=none;fillColor=#F2CC8F;strokeColor=#E07A5F;fontColor=#393C56;rounded=1;sketch=1;curveFitting=1;jiggle=2;" vertex="1" parent="1">
          <mxGeometry x="447.5" y="553" width="87.5" height="40" as="geometry" />
        </mxCell>
        <mxCell id="a8w0Mrk04vqDfvvO1UQ3-53" style="html=1;jettySize=auto;orthogonalLoop=1;curved=1;fontColor=default;labelBackgroundColor=none;strokeColor=#E07A5F;rounded=1;sketch=1;curveFitting=1;jiggle=2;" edge="1" parent="1" source="a8w0Mrk04vqDfvvO1UQ3-40" target="a8w0Mrk04vqDfvvO1UQ3-51">
          <mxGeometry relative="1" as="geometry">
            <mxPoint x="469" y="357" as="sourcePoint" />
            <mxPoint x="524" y="317" as="targetPoint" />
          </mxGeometry>
        </mxCell>
        <mxCell id="a8w0Mrk04vqDfvvO1UQ3-54" value="Extend" style="edgeLabel;html=1;align=center;verticalAlign=middle;resizable=0;points=[];fontSize=12;fontFamily=Architects Daughter;fontColor=#393C56;rounded=1;sketch=1;curveFitting=1;jiggle=2;labelBackgroundColor=none;" vertex="1" connectable="0" parent="a8w0Mrk04vqDfvvO1UQ3-53">
          <mxGeometry x="0.0086" y="-1" relative="1" as="geometry">
            <mxPoint as="offset" />
          </mxGeometry>
        </mxCell>
        <mxCell id="a8w0Mrk04vqDfvvO1UQ3-55" value="Pengumuman" style="ellipse;whiteSpace=wrap;html=1;labelBackgroundColor=none;fillColor=#F2CC8F;strokeColor=#E07A5F;fontColor=#393C56;rounded=1;sketch=1;curveFitting=1;jiggle=2;" vertex="1" parent="1">
          <mxGeometry x="505" y="583" width="87.5" height="40" as="geometry" />
        </mxCell>
        <mxCell id="a8w0Mrk04vqDfvvO1UQ3-56" style="html=1;jettySize=auto;orthogonalLoop=1;curved=1;fontColor=default;labelBackgroundColor=none;strokeColor=#E07A5F;exitX=1;exitY=0.5;exitDx=0;exitDy=0;rounded=1;sketch=1;curveFitting=1;jiggle=2;" edge="1" parent="1" target="a8w0Mrk04vqDfvvO1UQ3-55" source="a8w0Mrk04vqDfvvO1UQ3-40">
          <mxGeometry relative="1" as="geometry">
            <mxPoint x="362.4970398565596" y="729.0246453113125" as="sourcePoint" />
            <mxPoint x="534.87" y="357" as="targetPoint" />
          </mxGeometry>
        </mxCell>
        <mxCell id="a8w0Mrk04vqDfvvO1UQ3-57" value="Extend" style="edgeLabel;html=1;align=center;verticalAlign=middle;resizable=0;points=[];fontSize=12;fontFamily=Architects Daughter;fontColor=#393C56;rounded=1;sketch=1;curveFitting=1;jiggle=2;labelBackgroundColor=none;" vertex="1" connectable="0" parent="a8w0Mrk04vqDfvvO1UQ3-56">
          <mxGeometry x="0.0086" y="-1" relative="1" as="geometry">
            <mxPoint as="offset" />
          </mxGeometry>
        </mxCell>
        <mxCell id="a8w0Mrk04vqDfvvO1UQ3-58" value="Kelas" style="ellipse;whiteSpace=wrap;html=1;labelBackgroundColor=none;fillColor=#F2CC8F;strokeColor=#E07A5F;fontColor=#393C56;rounded=1;sketch=1;curveFitting=1;jiggle=2;" vertex="1" parent="1">
          <mxGeometry x="535" y="633" width="87.5" height="40" as="geometry" />
        </mxCell>
        <mxCell id="a8w0Mrk04vqDfvvO1UQ3-59" style="html=1;jettySize=auto;orthogonalLoop=1;curved=1;fontColor=default;labelBackgroundColor=none;strokeColor=#E07A5F;exitX=1;exitY=0;exitDx=0;exitDy=0;rounded=1;sketch=1;curveFitting=1;jiggle=2;" edge="1" parent="1" target="a8w0Mrk04vqDfvvO1UQ3-58" source="a8w0Mrk04vqDfvvO1UQ3-40">
          <mxGeometry relative="1" as="geometry">
            <mxPoint x="362.5000000000057" y="723" as="sourcePoint" />
            <mxPoint x="544" y="357" as="targetPoint" />
          </mxGeometry>
        </mxCell>
        <mxCell id="a8w0Mrk04vqDfvvO1UQ3-60" value="Extend" style="edgeLabel;html=1;align=center;verticalAlign=middle;resizable=0;points=[];fontSize=12;fontFamily=Architects Daughter;fontColor=#393C56;rounded=1;sketch=1;curveFitting=1;jiggle=2;labelBackgroundColor=none;" vertex="1" connectable="0" parent="a8w0Mrk04vqDfvvO1UQ3-59">
          <mxGeometry x="0.0086" y="-1" relative="1" as="geometry">
            <mxPoint as="offset" />
          </mxGeometry>
        </mxCell>
        <mxCell id="a8w0Mrk04vqDfvvO1UQ3-61" value="Nilai" style="ellipse;whiteSpace=wrap;html=1;labelBackgroundColor=none;fillColor=#F2CC8F;strokeColor=#E07A5F;fontColor=#393C56;rounded=1;sketch=1;curveFitting=1;jiggle=2;" vertex="1" parent="1">
          <mxGeometry x="467.5" y="673" width="87.5" height="40" as="geometry" />
        </mxCell>
        <mxCell id="a8w0Mrk04vqDfvvO1UQ3-62" style="html=1;jettySize=auto;orthogonalLoop=1;curved=1;fontColor=default;labelBackgroundColor=none;strokeColor=#E07A5F;rounded=1;sketch=1;curveFitting=1;jiggle=2;" edge="1" parent="1" target="a8w0Mrk04vqDfvvO1UQ3-61" source="a8w0Mrk04vqDfvvO1UQ3-40">
          <mxGeometry relative="1" as="geometry">
            <mxPoint x="317.5" y="777" as="sourcePoint" />
            <mxPoint x="481.5" y="397" as="targetPoint" />
          </mxGeometry>
        </mxCell>
        <mxCell id="a8w0Mrk04vqDfvvO1UQ3-63" value="Extend" style="edgeLabel;html=1;align=center;verticalAlign=middle;resizable=0;points=[];fontSize=12;fontFamily=Architects Daughter;fontColor=#393C56;rounded=1;sketch=1;curveFitting=1;jiggle=2;labelBackgroundColor=none;" vertex="1" connectable="0" parent="a8w0Mrk04vqDfvvO1UQ3-62">
          <mxGeometry x="0.0086" y="-1" relative="1" as="geometry">
            <mxPoint as="offset" />
          </mxGeometry>
        </mxCell>
        <mxCell id="a8w0Mrk04vqDfvvO1UQ3-64" value="Read Update Profile" style="ellipse;whiteSpace=wrap;html=1;labelBackgroundColor=none;fillColor=#F2CC8F;strokeColor=#E07A5F;fontColor=#393C56;rounded=1;sketch=1;curveFitting=1;jiggle=2;" vertex="1" parent="1">
          <mxGeometry x="265" y="763" width="90" height="50" as="geometry" />
        </mxCell>
        <mxCell id="a8w0Mrk04vqDfvvO1UQ3-65" style="html=1;jettySize=auto;orthogonalLoop=1;curved=1;fontColor=default;entryX=0.331;entryY=0.5;entryDx=0;entryDy=0;labelBackgroundColor=none;strokeColor=#E07A5F;entryPerimeter=0;rounded=1;sketch=1;curveFitting=1;jiggle=2;" edge="1" parent="1" source="c1cb8d76720eaeb-20" target="a8w0Mrk04vqDfvvO1UQ3-64">
          <mxGeometry relative="1" as="geometry">
            <mxPoint x="110" y="416" as="sourcePoint" />
            <mxPoint x="298" y="699" as="targetPoint" />
          </mxGeometry>
        </mxCell>
        <mxCell id="a8w0Mrk04vqDfvvO1UQ3-67" value="&lt;font style=&quot;font-size: 6px;&quot;&gt;Include&lt;/font&gt;" style="edgeLabel;html=1;align=center;verticalAlign=middle;resizable=0;points=[];fontSize=20;fontFamily=Architects Daughter;fontColor=#393C56;rounded=1;sketch=1;curveFitting=1;jiggle=2;labelBackgroundColor=none;" vertex="1" connectable="0" parent="1">
          <mxGeometry x="454.99835300450076" y="263.0010878315306" as="geometry">
            <mxPoint x="-5" y="5" as="offset" />
          </mxGeometry>
        </mxCell>
        <mxCell id="a8w0Mrk04vqDfvvO1UQ3-68" value="&lt;font style=&quot;font-size: 6px;&quot;&gt;Include&lt;/font&gt;" style="edgeLabel;html=1;align=center;verticalAlign=middle;resizable=0;points=[];fontSize=20;fontFamily=Architects Daughter;fontColor=#393C56;rounded=1;sketch=1;curveFitting=1;jiggle=2;labelBackgroundColor=none;" vertex="1" connectable="0" parent="1">
          <mxGeometry x="534.9983530045008" y="243.00108783153058" as="geometry" />
        </mxCell>
        <mxCell id="a8w0Mrk04vqDfvvO1UQ3-69" value="&lt;font style=&quot;font-size: 6px;&quot;&gt;Include&lt;/font&gt;" style="edgeLabel;html=1;align=center;verticalAlign=middle;resizable=0;points=[];fontSize=20;fontFamily=Architects Daughter;fontColor=#393C56;rounded=1;sketch=1;curveFitting=1;jiggle=2;labelBackgroundColor=none;" vertex="1" connectable="0" parent="1">
          <mxGeometry x="484.9983530045008" y="282.0710878315306" as="geometry">
            <mxPoint x="2" y="-10" as="offset" />
          </mxGeometry>
        </mxCell>
        <mxCell id="a8w0Mrk04vqDfvvO1UQ3-71" value="&lt;font style=&quot;font-size: 6px;&quot;&gt;Include&lt;/font&gt;" style="edgeLabel;html=1;align=center;verticalAlign=middle;resizable=0;points=[];fontSize=20;fontFamily=Architects Daughter;fontColor=#393C56;rounded=1;sketch=1;curveFitting=1;jiggle=2;labelBackgroundColor=none;" vertex="1" connectable="0" parent="1">
          <mxGeometry x="554.9983530045008" y="253.00108783153058" as="geometry">
            <mxPoint x="-80" y="28" as="offset" />
          </mxGeometry>
        </mxCell>
        <mxCell id="a8w0Mrk04vqDfvvO1UQ3-72" value="Logout" style="ellipse;whiteSpace=wrap;html=1;labelBackgroundColor=none;fillColor=#F2CC8F;strokeColor=#E07A5F;fontColor=#393C56;rounded=1;sketch=1;curveFitting=1;jiggle=2;" vertex="1" parent="1">
          <mxGeometry x="535" y="753" width="80" height="40" as="geometry" />
        </mxCell>
        <mxCell id="a8w0Mrk04vqDfvvO1UQ3-74" style="html=1;jettySize=auto;orthogonalLoop=1;curved=1;fontColor=default;exitX=0.5;exitY=0.5;exitDx=0;exitDy=0;exitPerimeter=0;labelBackgroundColor=none;strokeColor=#E07A5F;rounded=1;sketch=1;curveFitting=1;jiggle=2;" edge="1" parent="1">
          <mxGeometry relative="1" as="geometry">
            <mxPoint x="780" y="473" as="sourcePoint" />
            <mxPoint x="635" y="331" as="targetPoint" />
          </mxGeometry>
        </mxCell>
        <mxCell id="a8w0Mrk04vqDfvvO1UQ3-76" style="html=1;jettySize=auto;orthogonalLoop=1;curved=1;fontColor=default;entryX=1;entryY=0.5;entryDx=0;entryDy=0;dashed=1;labelBackgroundColor=none;strokeColor=#E07A5F;rounded=1;sketch=1;curveFitting=1;jiggle=2;" edge="1" parent="1" source="a8w0Mrk04vqDfvvO1UQ3-72" target="a8w0Mrk04vqDfvvO1UQ3-19">
          <mxGeometry relative="1" as="geometry">
            <mxPoint x="589" y="433" as="sourcePoint" />
            <mxPoint x="483" y="253" as="targetPoint" />
            <Array as="points">
              <mxPoint x="715" y="473" />
            </Array>
          </mxGeometry>
        </mxCell>
        <mxCell id="a8w0Mrk04vqDfvvO1UQ3-78" style="html=1;jettySize=auto;orthogonalLoop=1;curved=1;fontColor=default;exitX=0.5;exitY=0.5;exitDx=0;exitDy=0;exitPerimeter=0;labelBackgroundColor=none;strokeColor=#E07A5F;rounded=1;sketch=1;curveFitting=1;jiggle=2;" edge="1" parent="1" target="a8w0Mrk04vqDfvvO1UQ3-72">
          <mxGeometry relative="1" as="geometry">
            <mxPoint x="140" y="283" as="sourcePoint" />
            <mxPoint x="384" y="594" as="targetPoint" />
            <Array as="points">
              <mxPoint x="275" y="653" />
            </Array>
          </mxGeometry>
        </mxCell>
        <mxCell id="a8w0Mrk04vqDfvvO1UQ3-79" style="html=1;jettySize=auto;orthogonalLoop=1;curved=1;fontColor=default;labelBackgroundColor=none;strokeColor=#E07A5F;entryX=0.318;entryY=1.061;entryDx=0;entryDy=0;entryPerimeter=0;rounded=1;sketch=1;curveFitting=1;jiggle=2;" edge="1" parent="1" source="c1cb8d76720eaeb-20" target="a8w0Mrk04vqDfvvO1UQ3-72">
          <mxGeometry relative="1" as="geometry">
            <mxPoint x="150" y="293" as="sourcePoint" />
            <mxPoint x="394" y="604" as="targetPoint" />
            <Array as="points">
              <mxPoint x="145" y="963" />
            </Array>
          </mxGeometry>
        </mxCell>
        <mxCell id="a8w0Mrk04vqDfvvO1UQ3-80" style="html=1;jettySize=auto;orthogonalLoop=1;curved=1;fontColor=default;labelBackgroundColor=none;strokeColor=#E07A5F;rounded=1;sketch=1;curveFitting=1;jiggle=2;" edge="1" parent="1" target="a8w0Mrk04vqDfvvO1UQ3-72">
          <mxGeometry relative="1" as="geometry">
            <mxPoint x="760" y="453" as="sourcePoint" />
            <mxPoint x="404" y="614" as="targetPoint" />
            <Array as="points">
              <mxPoint x="775" y="683" />
            </Array>
          </mxGeometry>
        </mxCell>
        <mxCell id="a8w0Mrk04vqDfvvO1UQ3-81" value="&lt;font style=&quot;font-size: 6px;&quot;&gt;Include&lt;/font&gt;" style="edgeLabel;html=1;align=center;verticalAlign=middle;resizable=0;points=[];fontSize=20;fontFamily=Architects Daughter;fontColor=#393C56;rounded=1;sketch=1;curveFitting=1;jiggle=2;labelBackgroundColor=none;" vertex="1" connectable="0" parent="1">
          <mxGeometry x="634.9983530045008" y="533.0010878315306" as="geometry">
            <mxPoint x="2" y="-10" as="offset" />
          </mxGeometry>
        </mxCell>
        <mxCell id="a8w0Mrk04vqDfvvO1UQ3-82" value="Print Rapor" style="ellipse;whiteSpace=wrap;html=1;labelBackgroundColor=none;fillColor=#F2CC8F;strokeColor=#E07A5F;fontColor=#393C56;rounded=1;sketch=1;curveFitting=1;jiggle=2;" vertex="1" parent="1">
          <mxGeometry x="381" y="740" width="87.5" height="40" as="geometry" />
        </mxCell>
        <mxCell id="a8w0Mrk04vqDfvvO1UQ3-83" style="html=1;jettySize=auto;orthogonalLoop=1;curved=1;fontColor=default;exitX=0.5;exitY=0.5;exitDx=0;exitDy=0;exitPerimeter=0;labelBackgroundColor=none;strokeColor=#E07A5F;rounded=1;sketch=1;curveFitting=1;jiggle=2;" edge="1" parent="1" target="a8w0Mrk04vqDfvvO1UQ3-82">
          <mxGeometry relative="1" as="geometry">
            <mxPoint x="110" y="416" as="sourcePoint" />
            <mxPoint x="298" y="699" as="targetPoint" />
          </mxGeometry>
        </mxCell>
        <mxCell id="a8w0Mrk04vqDfvvO1UQ3-84" style="html=1;jettySize=auto;orthogonalLoop=1;curved=1;fontColor=default;dashed=1;labelBackgroundColor=none;strokeColor=#E07A5F;rounded=1;sketch=1;curveFitting=1;jiggle=2;exitX=0.678;exitY=0.091;exitDx=0;exitDy=0;exitPerimeter=0;" edge="1" parent="1" source="a8w0Mrk04vqDfvvO1UQ3-82">
          <mxGeometry relative="1" as="geometry">
            <mxPoint x="403" y="593" as="sourcePoint" />
            <mxPoint x="478" y="253" as="targetPoint" />
            <Array as="points">
              <mxPoint x="430" y="490" />
            </Array>
          </mxGeometry>
        </mxCell>
      </root>
    </mxGraphModel>
  </diagram>
</mxfile>
